<mxfile host="app.diagrams.net" modified="2024-04-14T16:34:16.213Z" agent="Mozilla/5.0 (Windows NT 10.0; Win64; x64) AppleWebKit/537.36 (KHTML, like Gecko) Chrome/123.0.0.0 Safari/537.36" etag="UAaFdXulNofNBJPTlnDU" version="24.2.5" type="device">
  <diagram name="第 1 页" id="0m3-zAvgJUUOYfaieOfs">
    <mxGraphModel dx="1723" dy="743" grid="0" gridSize="10" guides="1" tooltips="1" connect="1" arrows="1" fold="1" page="1" pageScale="1" pageWidth="827" pageHeight="1169" math="0" shadow="0">
      <root>
        <mxCell id="0" />
        <mxCell id="1" parent="0" />
        <mxCell id="MlTFS_EDUc4XMqCKuU3F-1" value="security" style="swimlane;fontStyle=0;childLayout=stackLayout;horizontal=1;startSize=26;fillColor=none;horizontalStack=0;resizeParent=1;resizeParentMax=0;resizeLast=0;collapsible=1;marginBottom=0;whiteSpace=wrap;html=1;" vertex="1" parent="1">
          <mxGeometry x="299" y="270" width="140" height="104" as="geometry" />
        </mxCell>
        <mxCell id="MlTFS_EDUc4XMqCKuU3F-2" value="security_id {PK}" style="text;strokeColor=none;fillColor=none;align=left;verticalAlign=top;spacingLeft=4;spacingRight=4;overflow=hidden;rotatable=0;points=[[0,0.5],[1,0.5]];portConstraint=eastwest;whiteSpace=wrap;html=1;" vertex="1" parent="MlTFS_EDUc4XMqCKuU3F-1">
          <mxGeometry y="26" width="140" height="26" as="geometry" />
        </mxCell>
        <mxCell id="MlTFS_EDUc4XMqCKuU3F-3" value="security_name" style="text;strokeColor=none;fillColor=none;align=left;verticalAlign=top;spacingLeft=4;spacingRight=4;overflow=hidden;rotatable=0;points=[[0,0.5],[1,0.5]];portConstraint=eastwest;whiteSpace=wrap;html=1;" vertex="1" parent="MlTFS_EDUc4XMqCKuU3F-1">
          <mxGeometry y="52" width="140" height="26" as="geometry" />
        </mxCell>
        <mxCell id="MlTFS_EDUc4XMqCKuU3F-4" value="security_type" style="text;strokeColor=none;fillColor=none;align=left;verticalAlign=top;spacingLeft=4;spacingRight=4;overflow=hidden;rotatable=0;points=[[0,0.5],[1,0.5]];portConstraint=eastwest;whiteSpace=wrap;html=1;" vertex="1" parent="MlTFS_EDUc4XMqCKuU3F-1">
          <mxGeometry y="78" width="140" height="26" as="geometry" />
        </mxCell>
        <mxCell id="MlTFS_EDUc4XMqCKuU3F-5" value="market_data" style="swimlane;fontStyle=0;childLayout=stackLayout;horizontal=1;startSize=26;fillColor=none;horizontalStack=0;resizeParent=1;resizeParentMax=0;resizeLast=0;collapsible=1;marginBottom=0;whiteSpace=wrap;html=1;" vertex="1" parent="1">
          <mxGeometry x="529" y="270" width="140" height="104" as="geometry" />
        </mxCell>
        <mxCell id="MlTFS_EDUc4XMqCKuU3F-6" value="data_id" style="text;strokeColor=none;fillColor=none;align=left;verticalAlign=top;spacingLeft=4;spacingRight=4;overflow=hidden;rotatable=0;points=[[0,0.5],[1,0.5]];portConstraint=eastwest;whiteSpace=wrap;html=1;" vertex="1" parent="MlTFS_EDUc4XMqCKuU3F-5">
          <mxGeometry y="26" width="140" height="26" as="geometry" />
        </mxCell>
        <mxCell id="MlTFS_EDUc4XMqCKuU3F-7" value="date" style="text;strokeColor=none;fillColor=none;align=left;verticalAlign=top;spacingLeft=4;spacingRight=4;overflow=hidden;rotatable=0;points=[[0,0.5],[1,0.5]];portConstraint=eastwest;whiteSpace=wrap;html=1;" vertex="1" parent="MlTFS_EDUc4XMqCKuU3F-5">
          <mxGeometry y="52" width="140" height="26" as="geometry" />
        </mxCell>
        <mxCell id="MlTFS_EDUc4XMqCKuU3F-8" value="market_price" style="text;strokeColor=none;fillColor=none;align=left;verticalAlign=top;spacingLeft=4;spacingRight=4;overflow=hidden;rotatable=0;points=[[0,0.5],[1,0.5]];portConstraint=eastwest;whiteSpace=wrap;html=1;" vertex="1" parent="MlTFS_EDUc4XMqCKuU3F-5">
          <mxGeometry y="78" width="140" height="26" as="geometry" />
        </mxCell>
        <mxCell id="MlTFS_EDUc4XMqCKuU3F-9" value="portfolio_holding" style="swimlane;fontStyle=0;childLayout=stackLayout;horizontal=1;startSize=26;fillColor=none;horizontalStack=0;resizeParent=1;resizeParentMax=0;resizeLast=0;collapsible=1;marginBottom=0;whiteSpace=wrap;html=1;" vertex="1" parent="1">
          <mxGeometry x="569" y="460" width="140" height="182" as="geometry" />
        </mxCell>
        <mxCell id="MlTFS_EDUc4XMqCKuU3F-10" value="portfolio_id {PK}" style="text;strokeColor=none;fillColor=none;align=left;verticalAlign=top;spacingLeft=4;spacingRight=4;overflow=hidden;rotatable=0;points=[[0,0.5],[1,0.5]];portConstraint=eastwest;whiteSpace=wrap;html=1;" vertex="1" parent="MlTFS_EDUc4XMqCKuU3F-9">
          <mxGeometry y="26" width="140" height="26" as="geometry" />
        </mxCell>
        <mxCell id="MlTFS_EDUc4XMqCKuU3F-24" value="portfolio_name {AK}" style="text;strokeColor=none;fillColor=none;align=left;verticalAlign=top;spacingLeft=4;spacingRight=4;overflow=hidden;rotatable=0;points=[[0,0.5],[1,0.5]];portConstraint=eastwest;whiteSpace=wrap;html=1;" vertex="1" parent="MlTFS_EDUc4XMqCKuU3F-9">
          <mxGeometry y="52" width="140" height="26" as="geometry" />
        </mxCell>
        <mxCell id="MlTFS_EDUc4XMqCKuU3F-25" value="/quantity" style="text;strokeColor=none;fillColor=none;align=left;verticalAlign=top;spacingLeft=4;spacingRight=4;overflow=hidden;rotatable=0;points=[[0,0.5],[1,0.5]];portConstraint=eastwest;whiteSpace=wrap;html=1;" vertex="1" parent="MlTFS_EDUc4XMqCKuU3F-9">
          <mxGeometry y="78" width="140" height="26" as="geometry" />
        </mxCell>
        <mxCell id="MlTFS_EDUc4XMqCKuU3F-13" value="cost_base" style="text;strokeColor=none;fillColor=none;align=left;verticalAlign=top;spacingLeft=4;spacingRight=4;overflow=hidden;rotatable=0;points=[[0,0.5],[1,0.5]];portConstraint=eastwest;whiteSpace=wrap;html=1;" vertex="1" parent="MlTFS_EDUc4XMqCKuU3F-9">
          <mxGeometry y="104" width="140" height="26" as="geometry" />
        </mxCell>
        <mxCell id="MlTFS_EDUc4XMqCKuU3F-14" value="market_value" style="text;strokeColor=none;fillColor=none;align=left;verticalAlign=top;spacingLeft=4;spacingRight=4;overflow=hidden;rotatable=0;points=[[0,0.5],[1,0.5]];portConstraint=eastwest;whiteSpace=wrap;html=1;" vertex="1" parent="MlTFS_EDUc4XMqCKuU3F-9">
          <mxGeometry y="130" width="140" height="26" as="geometry" />
        </mxCell>
        <mxCell id="MlTFS_EDUc4XMqCKuU3F-15" value="/gain/loss" style="text;strokeColor=none;fillColor=none;align=left;verticalAlign=top;spacingLeft=4;spacingRight=4;overflow=hidden;rotatable=0;points=[[0,0.5],[1,0.5]];portConstraint=eastwest;whiteSpace=wrap;html=1;" vertex="1" parent="MlTFS_EDUc4XMqCKuU3F-9">
          <mxGeometry y="156" width="140" height="26" as="geometry" />
        </mxCell>
        <mxCell id="MlTFS_EDUc4XMqCKuU3F-16" value="security_in_portfolio" style="swimlane;fontStyle=0;childLayout=stackLayout;horizontal=1;startSize=26;fillColor=none;horizontalStack=0;resizeParent=1;resizeParentMax=0;resizeLast=0;collapsible=1;marginBottom=0;whiteSpace=wrap;html=1;" vertex="1" parent="1">
          <mxGeometry x="289" y="470" width="140" height="130" as="geometry" />
        </mxCell>
        <mxCell id="MlTFS_EDUc4XMqCKuU3F-19" value="/quantity" style="text;strokeColor=none;fillColor=none;align=left;verticalAlign=top;spacingLeft=4;spacingRight=4;overflow=hidden;rotatable=0;points=[[0,0.5],[1,0.5]];portConstraint=eastwest;whiteSpace=wrap;html=1;" vertex="1" parent="MlTFS_EDUc4XMqCKuU3F-16">
          <mxGeometry y="26" width="140" height="26" as="geometry" />
        </mxCell>
        <mxCell id="MlTFS_EDUc4XMqCKuU3F-21" value="cost_base" style="text;strokeColor=none;fillColor=none;align=left;verticalAlign=top;spacingLeft=4;spacingRight=4;overflow=hidden;rotatable=0;points=[[0,0.5],[1,0.5]];portConstraint=eastwest;whiteSpace=wrap;html=1;" vertex="1" parent="MlTFS_EDUc4XMqCKuU3F-16">
          <mxGeometry y="52" width="140" height="26" as="geometry" />
        </mxCell>
        <mxCell id="MlTFS_EDUc4XMqCKuU3F-22" value="market_value" style="text;strokeColor=none;fillColor=none;align=left;verticalAlign=top;spacingLeft=4;spacingRight=4;overflow=hidden;rotatable=0;points=[[0,0.5],[1,0.5]];portConstraint=eastwest;whiteSpace=wrap;html=1;" vertex="1" parent="MlTFS_EDUc4XMqCKuU3F-16">
          <mxGeometry y="78" width="140" height="26" as="geometry" />
        </mxCell>
        <mxCell id="MlTFS_EDUc4XMqCKuU3F-23" value="/gain/loss" style="text;strokeColor=none;fillColor=none;align=left;verticalAlign=top;spacingLeft=4;spacingRight=4;overflow=hidden;rotatable=0;points=[[0,0.5],[1,0.5]];portConstraint=eastwest;whiteSpace=wrap;html=1;" vertex="1" parent="MlTFS_EDUc4XMqCKuU3F-16">
          <mxGeometry y="104" width="140" height="26" as="geometry" />
        </mxCell>
        <mxCell id="MlTFS_EDUc4XMqCKuU3F-26" style="edgeStyle=orthogonalEdgeStyle;rounded=0;orthogonalLoop=1;jettySize=auto;html=1;exitX=0;exitY=0.5;exitDx=0;exitDy=0;" edge="1" parent="1" source="MlTFS_EDUc4XMqCKuU3F-25">
          <mxGeometry relative="1" as="geometry">
            <mxPoint x="429" y="550" as="targetPoint" />
          </mxGeometry>
        </mxCell>
        <mxCell id="MlTFS_EDUc4XMqCKuU3F-27" value="consists" style="text;html=1;align=center;verticalAlign=middle;resizable=0;points=[];autosize=1;strokeColor=none;fillColor=none;" vertex="1" parent="1">
          <mxGeometry x="464" y="528" width="70" height="30" as="geometry" />
        </mxCell>
        <mxCell id="MlTFS_EDUc4XMqCKuU3F-29" value="" style="endArrow=none;html=1;rounded=0;entryX=0.471;entryY=1.128;entryDx=0;entryDy=0;entryPerimeter=0;exitX=0.552;exitY=0.005;exitDx=0;exitDy=0;exitPerimeter=0;" edge="1" parent="1" source="MlTFS_EDUc4XMqCKuU3F-16" target="MlTFS_EDUc4XMqCKuU3F-4">
          <mxGeometry width="50" height="50" relative="1" as="geometry">
            <mxPoint x="449" y="490" as="sourcePoint" />
            <mxPoint x="499" y="440" as="targetPoint" />
          </mxGeometry>
        </mxCell>
        <mxCell id="MlTFS_EDUc4XMqCKuU3F-30" value="" style="triangle;whiteSpace=wrap;html=1;rotation=-90;fillColor=#000000;" vertex="1" parent="1">
          <mxGeometry x="356" y="392" width="20" height="40" as="geometry" />
        </mxCell>
        <mxCell id="MlTFS_EDUc4XMqCKuU3F-33" value="{Mandantory, OR}" style="text;html=1;align=center;verticalAlign=middle;resizable=0;points=[];autosize=1;strokeColor=none;fillColor=none;" vertex="1" parent="1">
          <mxGeometry x="356" y="443" width="120" height="30" as="geometry" />
        </mxCell>
        <mxCell id="MlTFS_EDUc4XMqCKuU3F-34" value="watchlist" style="swimlane;fontStyle=0;childLayout=stackLayout;horizontal=1;startSize=26;fillColor=none;horizontalStack=0;resizeParent=1;resizeParentMax=0;resizeLast=0;collapsible=1;marginBottom=0;whiteSpace=wrap;html=1;" vertex="1" parent="1">
          <mxGeometry x="730" y="400" width="140" height="78" as="geometry" />
        </mxCell>
        <mxCell id="MlTFS_EDUc4XMqCKuU3F-35" value="watchlist_id {PK}" style="text;strokeColor=none;fillColor=none;align=left;verticalAlign=top;spacingLeft=4;spacingRight=4;overflow=hidden;rotatable=0;points=[[0,0.5],[1,0.5]];portConstraint=eastwest;whiteSpace=wrap;html=1;" vertex="1" parent="MlTFS_EDUc4XMqCKuU3F-34">
          <mxGeometry y="26" width="140" height="26" as="geometry" />
        </mxCell>
        <mxCell id="MlTFS_EDUc4XMqCKuU3F-36" value="watchlist_name {AK}" style="text;strokeColor=none;fillColor=none;align=left;verticalAlign=top;spacingLeft=4;spacingRight=4;overflow=hidden;rotatable=0;points=[[0,0.5],[1,0.5]];portConstraint=eastwest;whiteSpace=wrap;html=1;" vertex="1" parent="MlTFS_EDUc4XMqCKuU3F-34">
          <mxGeometry y="52" width="140" height="26" as="geometry" />
        </mxCell>
        <mxCell id="MlTFS_EDUc4XMqCKuU3F-82" style="edgeStyle=orthogonalEdgeStyle;rounded=0;orthogonalLoop=1;jettySize=auto;html=1;" edge="1" parent="1" source="MlTFS_EDUc4XMqCKuU3F-41">
          <mxGeometry relative="1" as="geometry">
            <mxPoint x="530" y="780" as="targetPoint" />
          </mxGeometry>
        </mxCell>
        <mxCell id="MlTFS_EDUc4XMqCKuU3F-83" style="edgeStyle=orthogonalEdgeStyle;rounded=0;orthogonalLoop=1;jettySize=auto;html=1;exitX=1;exitY=0.5;exitDx=0;exitDy=0;" edge="1" parent="1" source="MlTFS_EDUc4XMqCKuU3F-41" target="MlTFS_EDUc4XMqCKuU3F-45">
          <mxGeometry relative="1" as="geometry" />
        </mxCell>
        <mxCell id="MlTFS_EDUc4XMqCKuU3F-41" value="registers" style="rhombus;whiteSpace=wrap;html=1;" vertex="1" parent="1">
          <mxGeometry x="599" y="688" width="90" height="50" as="geometry" />
        </mxCell>
        <mxCell id="MlTFS_EDUc4XMqCKuU3F-42" value="account" style="swimlane;fontStyle=0;childLayout=stackLayout;horizontal=1;startSize=26;fillColor=none;horizontalStack=0;resizeParent=1;resizeParentMax=0;resizeLast=0;collapsible=1;marginBottom=0;whiteSpace=wrap;html=1;" vertex="1" parent="1">
          <mxGeometry x="464" y="781" width="140" height="78" as="geometry" />
        </mxCell>
        <mxCell id="MlTFS_EDUc4XMqCKuU3F-43" value="account_id{PK}" style="text;strokeColor=none;fillColor=none;align=left;verticalAlign=top;spacingLeft=4;spacingRight=4;overflow=hidden;rotatable=0;points=[[0,0.5],[1,0.5]];portConstraint=eastwest;whiteSpace=wrap;html=1;" vertex="1" parent="MlTFS_EDUc4XMqCKuU3F-42">
          <mxGeometry y="26" width="140" height="26" as="geometry" />
        </mxCell>
        <mxCell id="MlTFS_EDUc4XMqCKuU3F-44" value="/account_balance" style="text;strokeColor=none;fillColor=none;align=left;verticalAlign=top;spacingLeft=4;spacingRight=4;overflow=hidden;rotatable=0;points=[[0,0.5],[1,0.5]];portConstraint=eastwest;whiteSpace=wrap;html=1;" vertex="1" parent="MlTFS_EDUc4XMqCKuU3F-42">
          <mxGeometry y="52" width="140" height="26" as="geometry" />
        </mxCell>
        <mxCell id="MlTFS_EDUc4XMqCKuU3F-87" style="edgeStyle=orthogonalEdgeStyle;rounded=0;orthogonalLoop=1;jettySize=auto;html=1;exitX=0.75;exitY=0;exitDx=0;exitDy=0;" edge="1" parent="1" source="MlTFS_EDUc4XMqCKuU3F-45">
          <mxGeometry relative="1" as="geometry">
            <mxPoint x="791" y="477" as="targetPoint" />
            <mxPoint x="791" y="777" as="sourcePoint" />
          </mxGeometry>
        </mxCell>
        <mxCell id="MlTFS_EDUc4XMqCKuU3F-45" value="user" style="swimlane;fontStyle=0;childLayout=stackLayout;horizontal=1;startSize=26;fillColor=none;horizontalStack=0;resizeParent=1;resizeParentMax=0;resizeLast=0;collapsible=1;marginBottom=0;whiteSpace=wrap;html=1;" vertex="1" parent="1">
          <mxGeometry x="686" y="780" width="140" height="156" as="geometry" />
        </mxCell>
        <mxCell id="MlTFS_EDUc4XMqCKuU3F-46" value="user_id {PK}" style="text;strokeColor=none;fillColor=none;align=left;verticalAlign=top;spacingLeft=4;spacingRight=4;overflow=hidden;rotatable=0;points=[[0,0.5],[1,0.5]];portConstraint=eastwest;whiteSpace=wrap;html=1;" vertex="1" parent="MlTFS_EDUc4XMqCKuU3F-45">
          <mxGeometry y="26" width="140" height="26" as="geometry" />
        </mxCell>
        <mxCell id="MlTFS_EDUc4XMqCKuU3F-47" value="user_name {AK}" style="text;strokeColor=none;fillColor=none;align=left;verticalAlign=top;spacingLeft=4;spacingRight=4;overflow=hidden;rotatable=0;points=[[0,0.5],[1,0.5]];portConstraint=eastwest;whiteSpace=wrap;html=1;" vertex="1" parent="MlTFS_EDUc4XMqCKuU3F-45">
          <mxGeometry y="52" width="140" height="26" as="geometry" />
        </mxCell>
        <mxCell id="MlTFS_EDUc4XMqCKuU3F-48" value="email {AK}" style="text;strokeColor=none;fillColor=none;align=left;verticalAlign=top;spacingLeft=4;spacingRight=4;overflow=hidden;rotatable=0;points=[[0,0.5],[1,0.5]];portConstraint=eastwest;whiteSpace=wrap;html=1;" vertex="1" parent="MlTFS_EDUc4XMqCKuU3F-45">
          <mxGeometry y="78" width="140" height="26" as="geometry" />
        </mxCell>
        <mxCell id="MlTFS_EDUc4XMqCKuU3F-49" value="password" style="text;strokeColor=none;fillColor=none;align=left;verticalAlign=top;spacingLeft=4;spacingRight=4;overflow=hidden;rotatable=0;points=[[0,0.5],[1,0.5]];portConstraint=eastwest;whiteSpace=wrap;html=1;" vertex="1" parent="MlTFS_EDUc4XMqCKuU3F-45">
          <mxGeometry y="104" width="140" height="26" as="geometry" />
        </mxCell>
        <mxCell id="MlTFS_EDUc4XMqCKuU3F-56" value="date_created" style="text;strokeColor=none;fillColor=none;align=left;verticalAlign=top;spacingLeft=4;spacingRight=4;overflow=hidden;rotatable=0;points=[[0,0.5],[1,0.5]];portConstraint=eastwest;whiteSpace=wrap;html=1;" vertex="1" parent="MlTFS_EDUc4XMqCKuU3F-45">
          <mxGeometry y="130" width="140" height="26" as="geometry" />
        </mxCell>
        <mxCell id="MlTFS_EDUc4XMqCKuU3F-57" value="transaction" style="swimlane;fontStyle=0;childLayout=stackLayout;horizontal=1;startSize=26;fillColor=none;horizontalStack=0;resizeParent=1;resizeParentMax=0;resizeLast=0;collapsible=1;marginBottom=0;whiteSpace=wrap;html=1;" vertex="1" parent="1">
          <mxGeometry x="27" y="469" width="140" height="130" as="geometry" />
        </mxCell>
        <mxCell id="MlTFS_EDUc4XMqCKuU3F-58" value="transaction_id {PK}" style="text;strokeColor=none;fillColor=none;align=left;verticalAlign=top;spacingLeft=4;spacingRight=4;overflow=hidden;rotatable=0;points=[[0,0.5],[1,0.5]];portConstraint=eastwest;whiteSpace=wrap;html=1;" vertex="1" parent="MlTFS_EDUc4XMqCKuU3F-57">
          <mxGeometry y="26" width="140" height="26" as="geometry" />
        </mxCell>
        <mxCell id="MlTFS_EDUc4XMqCKuU3F-59" value="transaction_date" style="text;strokeColor=none;fillColor=none;align=left;verticalAlign=top;spacingLeft=4;spacingRight=4;overflow=hidden;rotatable=0;points=[[0,0.5],[1,0.5]];portConstraint=eastwest;whiteSpace=wrap;html=1;" vertex="1" parent="MlTFS_EDUc4XMqCKuU3F-57">
          <mxGeometry y="52" width="140" height="26" as="geometry" />
        </mxCell>
        <mxCell id="MlTFS_EDUc4XMqCKuU3F-75" value="transaction_type" style="text;strokeColor=none;fillColor=none;align=left;verticalAlign=top;spacingLeft=4;spacingRight=4;overflow=hidden;rotatable=0;points=[[0,0.5],[1,0.5]];portConstraint=eastwest;whiteSpace=wrap;html=1;" vertex="1" parent="MlTFS_EDUc4XMqCKuU3F-57">
          <mxGeometry y="78" width="140" height="26" as="geometry" />
        </mxCell>
        <mxCell id="MlTFS_EDUc4XMqCKuU3F-60" value="transaction_amount" style="text;strokeColor=none;fillColor=none;align=left;verticalAlign=top;spacingLeft=4;spacingRight=4;overflow=hidden;rotatable=0;points=[[0,0.5],[1,0.5]];portConstraint=eastwest;whiteSpace=wrap;html=1;" vertex="1" parent="MlTFS_EDUc4XMqCKuU3F-57">
          <mxGeometry y="104" width="140" height="26" as="geometry" />
        </mxCell>
        <mxCell id="MlTFS_EDUc4XMqCKuU3F-78" style="edgeStyle=orthogonalEdgeStyle;rounded=0;orthogonalLoop=1;jettySize=auto;html=1;exitX=0;exitY=0.5;exitDx=0;exitDy=0;entryX=0.386;entryY=0.974;entryDx=0;entryDy=0;entryPerimeter=0;" edge="1" parent="1" source="MlTFS_EDUc4XMqCKuU3F-43" target="MlTFS_EDUc4XMqCKuU3F-60">
          <mxGeometry relative="1" as="geometry" />
        </mxCell>
        <mxCell id="MlTFS_EDUc4XMqCKuU3F-80" style="edgeStyle=orthogonalEdgeStyle;rounded=0;orthogonalLoop=1;jettySize=auto;html=1;exitX=1;exitY=0.5;exitDx=0;exitDy=0;entryX=0;entryY=0.5;entryDx=0;entryDy=0;" edge="1" parent="1" source="MlTFS_EDUc4XMqCKuU3F-3" target="MlTFS_EDUc4XMqCKuU3F-7">
          <mxGeometry relative="1" as="geometry" />
        </mxCell>
        <mxCell id="MlTFS_EDUc4XMqCKuU3F-81" style="edgeStyle=orthogonalEdgeStyle;rounded=0;orthogonalLoop=1;jettySize=auto;html=1;exitX=0.5;exitY=0;exitDx=0;exitDy=0;entryX=0.531;entryY=1.026;entryDx=0;entryDy=0;entryPerimeter=0;" edge="1" parent="1" source="MlTFS_EDUc4XMqCKuU3F-41" target="MlTFS_EDUc4XMqCKuU3F-15">
          <mxGeometry relative="1" as="geometry" />
        </mxCell>
        <mxCell id="MlTFS_EDUc4XMqCKuU3F-85" style="edgeStyle=orthogonalEdgeStyle;rounded=0;orthogonalLoop=1;jettySize=auto;html=1;exitX=0.436;exitY=0.026;exitDx=0;exitDy=0;exitPerimeter=0;entryX=0.438;entryY=0.034;entryDx=0;entryDy=0;entryPerimeter=0;" edge="1" parent="1">
          <mxGeometry relative="1" as="geometry">
            <mxPoint x="358.71999999999997" y="270.054" as="sourcePoint" />
            <mxPoint x="789.9999999999999" y="400.00200000000007" as="targetPoint" />
            <Array as="points">
              <mxPoint x="359" y="230" />
              <mxPoint x="789" y="230" />
              <mxPoint x="789" y="347" />
              <mxPoint x="790" y="347" />
            </Array>
          </mxGeometry>
        </mxCell>
        <mxCell id="MlTFS_EDUc4XMqCKuU3F-86" value="is added to" style="text;html=1;align=center;verticalAlign=middle;resizable=0;points=[];autosize=1;strokeColor=none;fillColor=none;" vertex="1" parent="1">
          <mxGeometry x="520" y="200" width="80" height="30" as="geometry" />
        </mxCell>
        <mxCell id="MlTFS_EDUc4XMqCKuU3F-88" value="creates" style="text;html=1;align=center;verticalAlign=middle;resizable=0;points=[];autosize=1;strokeColor=none;fillColor=none;" vertex="1" parent="1">
          <mxGeometry x="730" y="550" width="60" height="30" as="geometry" />
        </mxCell>
        <mxCell id="MlTFS_EDUc4XMqCKuU3F-89" value="1..1" style="text;html=1;align=center;verticalAlign=middle;resizable=0;points=[];autosize=1;strokeColor=none;fillColor=none;" vertex="1" parent="1">
          <mxGeometry x="786" y="751" width="40" height="30" as="geometry" />
        </mxCell>
        <mxCell id="MlTFS_EDUc4XMqCKuU3F-90" value="1..1" style="text;html=1;align=center;verticalAlign=middle;resizable=0;points=[];autosize=1;strokeColor=none;fillColor=none;" vertex="1" parent="1">
          <mxGeometry x="690" y="758" width="40" height="30" as="geometry" />
        </mxCell>
        <mxCell id="MlTFS_EDUc4XMqCKuU3F-91" value="1..1" style="text;html=1;align=center;verticalAlign=middle;resizable=0;points=[];autosize=1;strokeColor=none;fillColor=none;" vertex="1" parent="1">
          <mxGeometry x="480" y="758" width="40" height="30" as="geometry" />
        </mxCell>
        <mxCell id="MlTFS_EDUc4XMqCKuU3F-92" value="0..*" style="text;html=1;align=center;verticalAlign=middle;resizable=0;points=[];autosize=1;strokeColor=none;fillColor=none;" vertex="1" parent="1">
          <mxGeometry x="640" y="638" width="40" height="30" as="geometry" />
        </mxCell>
        <mxCell id="MlTFS_EDUc4XMqCKuU3F-93" value="0..1" style="text;html=1;align=center;verticalAlign=middle;resizable=0;points=[];autosize=1;strokeColor=none;fillColor=none;" vertex="1" parent="1">
          <mxGeometry x="740" y="478" width="40" height="30" as="geometry" />
        </mxCell>
        <mxCell id="MlTFS_EDUc4XMqCKuU3F-94" value="0..1" style="text;html=1;align=center;verticalAlign=middle;resizable=0;points=[];autosize=1;strokeColor=none;fillColor=none;" vertex="1" parent="1">
          <mxGeometry x="732" y="374" width="40" height="30" as="geometry" />
        </mxCell>
        <mxCell id="MlTFS_EDUc4XMqCKuU3F-95" value="1..*" style="text;html=1;align=center;verticalAlign=middle;resizable=0;points=[];autosize=1;strokeColor=none;fillColor=none;" vertex="1" parent="1">
          <mxGeometry x="420" y="508" width="40" height="30" as="geometry" />
        </mxCell>
        <mxCell id="MlTFS_EDUc4XMqCKuU3F-96" value="0..*" style="text;html=1;align=center;verticalAlign=middle;resizable=0;points=[];autosize=1;strokeColor=none;fillColor=none;" vertex="1" parent="1">
          <mxGeometry x="540" y="514" width="40" height="30" as="geometry" />
        </mxCell>
        <mxCell id="MlTFS_EDUc4XMqCKuU3F-97" value="involves" style="text;html=1;align=center;verticalAlign=middle;resizable=0;points=[];autosize=1;strokeColor=none;fillColor=none;" vertex="1" parent="1">
          <mxGeometry x="191" y="528" width="70" height="30" as="geometry" />
        </mxCell>
        <mxCell id="MlTFS_EDUc4XMqCKuU3F-100" value="1..*" style="text;html=1;align=center;verticalAlign=middle;resizable=0;points=[];autosize=1;strokeColor=none;fillColor=none;" vertex="1" parent="1">
          <mxGeometry x="310" y="248" width="40" height="30" as="geometry" />
        </mxCell>
        <mxCell id="MlTFS_EDUc4XMqCKuU3F-101" value="has" style="text;html=1;align=center;verticalAlign=middle;resizable=0;points=[];autosize=1;strokeColor=none;fillColor=none;" vertex="1" parent="1">
          <mxGeometry x="460" y="308" width="40" height="30" as="geometry" />
        </mxCell>
        <mxCell id="MlTFS_EDUc4XMqCKuU3F-102" value="0..*" style="text;html=1;align=center;verticalAlign=middle;resizable=0;points=[];autosize=1;strokeColor=none;fillColor=none;" vertex="1" parent="1">
          <mxGeometry x="490" y="298" width="40" height="30" as="geometry" />
        </mxCell>
        <mxCell id="MlTFS_EDUc4XMqCKuU3F-103" value="1..1" style="text;html=1;align=center;verticalAlign=middle;resizable=0;points=[];autosize=1;strokeColor=none;fillColor=none;" vertex="1" parent="1">
          <mxGeometry x="436" y="298" width="40" height="30" as="geometry" />
        </mxCell>
        <mxCell id="MlTFS_EDUc4XMqCKuU3F-105" style="edgeStyle=orthogonalEdgeStyle;rounded=0;orthogonalLoop=1;jettySize=auto;html=1;exitX=1;exitY=0.5;exitDx=0;exitDy=0;entryX=0;entryY=0.5;entryDx=0;entryDy=0;" edge="1" parent="1">
          <mxGeometry relative="1" as="geometry">
            <mxPoint x="167" y="551" as="sourcePoint" />
            <mxPoint x="289" y="552" as="targetPoint" />
          </mxGeometry>
        </mxCell>
        <mxCell id="MlTFS_EDUc4XMqCKuU3F-107" value="0..1" style="text;html=1;align=center;verticalAlign=middle;resizable=0;points=[];autosize=1;strokeColor=none;fillColor=none;" vertex="1" parent="1">
          <mxGeometry x="250" y="508" width="40" height="30" as="geometry" />
        </mxCell>
        <mxCell id="MlTFS_EDUc4XMqCKuU3F-108" value="1..1" style="text;html=1;align=center;verticalAlign=middle;resizable=0;points=[];autosize=1;strokeColor=none;fillColor=none;" vertex="1" parent="1">
          <mxGeometry x="160" y="508" width="40" height="30" as="geometry" />
        </mxCell>
        <mxCell id="MlTFS_EDUc4XMqCKuU3F-109" value="is involved in" style="text;html=1;align=center;verticalAlign=middle;resizable=0;points=[];autosize=1;strokeColor=none;fillColor=none;" vertex="1" parent="1">
          <mxGeometry x="118" y="796" width="90" height="30" as="geometry" />
        </mxCell>
        <mxCell id="MlTFS_EDUc4XMqCKuU3F-110" value="0..*" style="text;html=1;align=center;verticalAlign=middle;resizable=0;points=[];autosize=1;strokeColor=none;fillColor=none;" vertex="1" parent="1">
          <mxGeometry x="80" y="598" width="40" height="30" as="geometry" />
        </mxCell>
        <mxCell id="MlTFS_EDUc4XMqCKuU3F-111" value="1..1" style="text;html=1;align=center;verticalAlign=middle;resizable=0;points=[];autosize=1;strokeColor=none;fillColor=none;" vertex="1" parent="1">
          <mxGeometry x="420" y="798" width="40" height="30" as="geometry" />
        </mxCell>
        <mxCell id="MlTFS_EDUc4XMqCKuU3F-112" value="" style="endArrow=none;dashed=1;html=1;rounded=0;" edge="1" parent="1" target="MlTFS_EDUc4XMqCKuU3F-113">
          <mxGeometry width="50" height="50" relative="1" as="geometry">
            <mxPoint x="80" y="700" as="sourcePoint" />
            <mxPoint x="150" y="700" as="targetPoint" />
          </mxGeometry>
        </mxCell>
        <mxCell id="MlTFS_EDUc4XMqCKuU3F-113" value="" style="swimlane;fontStyle=0;childLayout=stackLayout;horizontal=1;startSize=26;fillColor=none;horizontalStack=0;resizeParent=1;resizeParentMax=0;resizeLast=0;collapsible=1;marginBottom=0;whiteSpace=wrap;html=1;" vertex="1" parent="1">
          <mxGeometry x="210" y="625" width="140" height="156" as="geometry" />
        </mxCell>
        <mxCell id="MlTFS_EDUc4XMqCKuU3F-114" value="notification_id" style="text;strokeColor=none;fillColor=none;align=left;verticalAlign=top;spacingLeft=4;spacingRight=4;overflow=hidden;rotatable=0;points=[[0,0.5],[1,0.5]];portConstraint=eastwest;whiteSpace=wrap;html=1;" vertex="1" parent="MlTFS_EDUc4XMqCKuU3F-113">
          <mxGeometry y="26" width="140" height="26" as="geometry" />
        </mxCell>
        <mxCell id="MlTFS_EDUc4XMqCKuU3F-115" value="transaction_date" style="text;strokeColor=none;fillColor=none;align=left;verticalAlign=top;spacingLeft=4;spacingRight=4;overflow=hidden;rotatable=0;points=[[0,0.5],[1,0.5]];portConstraint=eastwest;whiteSpace=wrap;html=1;" vertex="1" parent="MlTFS_EDUc4XMqCKuU3F-113">
          <mxGeometry y="52" width="140" height="26" as="geometry" />
        </mxCell>
        <mxCell id="MlTFS_EDUc4XMqCKuU3F-116" value="transaction_type" style="text;strokeColor=none;fillColor=none;align=left;verticalAlign=top;spacingLeft=4;spacingRight=4;overflow=hidden;rotatable=0;points=[[0,0.5],[1,0.5]];portConstraint=eastwest;whiteSpace=wrap;html=1;" vertex="1" parent="MlTFS_EDUc4XMqCKuU3F-113">
          <mxGeometry y="78" width="140" height="26" as="geometry" />
        </mxCell>
        <mxCell id="MlTFS_EDUc4XMqCKuU3F-117" value="transaction_amount" style="text;strokeColor=none;fillColor=none;align=left;verticalAlign=top;spacingLeft=4;spacingRight=4;overflow=hidden;rotatable=0;points=[[0,0.5],[1,0.5]];portConstraint=eastwest;whiteSpace=wrap;html=1;" vertex="1" parent="MlTFS_EDUc4XMqCKuU3F-113">
          <mxGeometry y="104" width="140" height="26" as="geometry" />
        </mxCell>
        <mxCell id="MlTFS_EDUc4XMqCKuU3F-118" value="/account balance" style="text;strokeColor=none;fillColor=none;align=left;verticalAlign=top;spacingLeft=4;spacingRight=4;overflow=hidden;rotatable=0;points=[[0,0.5],[1,0.5]];portConstraint=eastwest;whiteSpace=wrap;html=1;" vertex="1" parent="MlTFS_EDUc4XMqCKuU3F-113">
          <mxGeometry y="130" width="140" height="26" as="geometry" />
        </mxCell>
      </root>
    </mxGraphModel>
  </diagram>
</mxfile>
